<svg height="512pt" viewBox="0 -1 512 512" width="512pt" xmlns="http://www.w3.org/2000/svg"><path d="m313.304688 113.828125c-.132813 3.4375-2.953126 6.167969-6.390626 6.167969h-97.667968c-3.433594 0-6.257813-2.730469-6.386719-6.167969-2.519531-67.144531 39.570313-97.816406 51.882813-105.335937 2.054687-1.246094 4.625-1.246094 6.679687 0 3.890625 2.371093 10.75 7.054687 18.238281 14.472656 16.210938 16.058594 35.367188 44.917968 33.644532 90.863281zm0 0" fill="#f29500"/><path d="m313.304688 113.828125c-.132813 3.4375-2.953126 6.167969-6.390626 6.167969h-54.511718c-3.433594 0-6.257813-2.730469-6.386719-6.167969-1.722656-45.945313 17.429687-74.804687 33.644531-90.863281 16.210938 16.058594 35.367188 44.917968 33.644532 90.863281zm0 0" fill="#ffa90b"/><path d="m213.410156 109.988281c2.109375 2.71875 1.703125 6.621094-.929687 8.832031l-74.820313 62.777344c-2.628906 2.210938-6.546875 1.929688-8.855468-.617187-45.089844-49.816407-32.566407-100.367188-27.964844-114.039063.773437-2.277344 2.742187-3.929687 5.117187-4.296875 4.503907-.683593 12.769531-1.507812 23.273438-.636719 22.742187 1.882813 55.964843 11.675782 84.179687 47.980469zm0 0" fill="#f29500"/><path d="m213.410156 109.988281c2.109375 2.71875 1.703125 6.621094-.929687 8.832031l-41.757813 35.039063c-2.632812 2.207031-6.550781 1.929687-8.859375-.617187-30.851562-34.089844-34.730469-68.507813-32.632812-91.234376 22.742187 1.882813 55.964843 11.675782 84.179687 47.980469zm0 0" fill="#ffa90b"/><path d="m134.417969 171.257812c3.363281.726563 5.5625 3.976563 4.964843 7.359376l-16.960937 96.183593c-.597656 3.386719-3.773437 5.691407-7.179687 5.222657-66.566407-9.179688-89.464844-55.953126-94.726563-69.386719-.875-2.238281-.429687-4.769531 1.15625-6.578125 3.007813-3.417969 8.8125-9.363282 17.417969-15.445313 18.632812-13.179687 50.378906-27.03125 95.328125-17.355469zm0 0" fill="#f29500"/><path d="m134.417969 171.257812c3.363281.726563 5.5625 3.976563 4.964843 7.359376l-9.464843 53.683593c-.597657 3.386719-3.777344 5.691407-7.183594 5.222657-45.546875-6.28125-70.640625-30.15625-83.644531-48.910157 18.632812-13.179687 50.378906-27.03125 95.328125-17.355469zm0 0" fill="#ffa90b"/><path d="m113.289062 268.964844c3.042969-1.601563 6.816407-.523438 8.535157 2.449218l48.835937 84.585938c1.714844 2.972656.761719 6.78125-2.148437 8.613281-56.890625 35.757813-104.496094 14.644531-117.164063 7.738281-2.109375-1.15625-3.394531-3.382812-3.339844-5.785156.105469-4.554687.734376-12.839844 3.414063-23.03125 5.800781-22.070312 21.214844-53.085937 61.867187-74.570312zm0 0" fill="#f29500"/><path d="m113.289062 268.964844c3.042969-1.601563 6.816407-.523438 8.535157 2.449218l27.257812 47.210938c1.71875 2.976562.761719 6.785156-2.148437 8.617188-38.929688 24.464843-73.496094 22.304687-95.511719 16.296874 5.800781-22.074218 21.214844-53.089843 61.867187-74.574218zm0 0" fill="#ffa90b"/><path d="m159.910156 357.394531c1.300782-3.183593 4.882813-4.785156 8.113282-3.609375l91.777343 33.40625c3.230469 1.175782 4.945313 4.707032 3.894531 7.980469-20.597656 63.957031-70.636718 78.382813-84.78125 81.238281-2.359374.46875-4.773437-.410156-6.277343-2.285156-2.84375-3.558594-7.6875-10.304688-12.1875-19.835938-9.742188-20.636718-17.871094-54.304687-.539063-96.894531zm0 0" fill="#f29500"/><path d="m159.910156 357.394531c1.300782-3.183593 4.882813-4.785156 8.113282-3.609375l51.222656 18.644532c3.230468 1.175781 4.949218 4.707031 3.894531 7.980468-14.09375 43.765625-41.964844 64.332032-62.691406 73.878906-9.742188-20.636718-17.871094-54.304687-.539063-96.894531zm0 0" fill="#ffa90b"/><path d="m252.46875 395.171875c-1.054688-3.273437.664062-6.804687 3.890625-7.980469l91.777344-33.40625c3.230469-1.171875 6.816406.429688 8.113281 3.609375 25.335938 62.238281-3.726562 105.457031-12.726562 116.730469-1.503907 1.875-3.917969 2.753906-6.277344 2.285156-4.464844-.894531-12.515625-2.953125-22.085938-7.359375-20.726562-9.546875-48.597656-30.113281-62.691406-73.878906zm0 0" fill="#f29500"/><path d="m252.46875 395.171875c-1.054688-3.273437.664062-6.804687 3.890625-7.980469l51.226563-18.644531c3.226562-1.175781 6.8125.425781 8.113281 3.609375 17.332031 42.585938 9.203125 76.257812-.539063 96.894531-20.726562-9.546875-48.597656-30.113281-62.691406-73.878906zm0 0" fill="#ffa90b"/><path d="m347.648438 364.613281c-2.910157-1.832031-3.863282-5.640625-2.144532-8.617187l48.832032-84.582032c1.71875-2.976562 5.496093-4.054687 8.535156-2.449218 59.410156 31.390625 64.929687 83.175781 65.28125 97.597656.054687 2.40625-1.230469 4.632812-3.339844 5.789062-3.992188 2.183594-11.484375 5.78125-21.648438 8.558594-22.015624 6.011719-56.585937 8.167969-95.515624-16.296875zm0 0" fill="#f29500"/><path d="m347.648438 364.613281c-2.910157-1.832031-3.863282-5.640625-2.144532-8.617187l27.253906-47.207032c1.71875-2.976562 5.496094-4.054687 8.535157-2.449218 40.652343 21.480468 56.066406 52.5 61.871093 74.570312-22.015624 6.011719-56.585937 8.167969-95.515624-16.296875zm0 0" fill="#ffa90b"/><path d="m400.921875 280.023438c-3.40625.46875-6.585937-1.835938-7.183594-5.21875l-16.957031-96.183594c-.597656-3.382813 1.601562-6.636719 4.960938-7.363282 65.691406-14.140624 103.203124 21.984376 112.746093 32.804688 1.585938 1.804688 2.03125 4.335938 1.160157 6.578125-1.65625 4.238281-5.082032 11.8125-11.082032 20.472656-13.003906 18.753907-38.097656 42.628907-83.644531 48.910157zm0 0" fill="#f29500"/><path d="m400.921875 280.023438c-3.40625.46875-6.585937-1.835938-7.183594-5.21875l-9.464843-53.683594c-.59375-3.382813 1.601562-6.636719 4.964843-7.363282 44.949219-9.675781 76.695313 4.179688 95.328125 17.355469-13.003906 18.753907-38.097656 42.628907-83.644531 48.910157zm0 0" fill="#ffa90b"/><path d="m387.359375 180.980469c-2.308594 2.550781-6.226563 2.828125-8.859375.617187l-74.816406-62.777344c-2.632813-2.207031-3.039063-6.113281-.929688-8.828124 41.230469-53.058594 93.1875-49.5 107.453125-47.34375 2.375.363281 4.34375 2.015624 5.117188 4.292968 1.457031 4.316406 3.699219 12.316406 4.667969 22.808594 2.097656 22.722656-1.78125 57.140625-32.632813 91.230469zm0 0" fill="#f29500"/><path d="m387.359375 180.980469c-2.308594 2.550781-6.226563 2.828125-8.859375.617187l-41.757812-35.039062c-2.632813-2.207032-3.039063-6.113282-.929688-8.828125 28.214844-36.304688 61.4375-46.097657 84.179688-47.980469 2.097656 22.722656-1.78125 57.140625-32.632813 91.230469zm0 0" fill="#ffa90b"/><path d="m416.039062 249.140625c0 36.40625-12.3125 69.929687-33.007812 96.640625-28.890625 37.300781-74.109375 61.3125-124.945312 61.3125-87.238282 0-157.960938-70.714844-157.960938-157.953125 0-62.25 36.011719-116.097656 88.34375-141.820313 21-10.339843 44.628906-16.140624 69.617188-16.140624 87.230468 0 157.953124 70.722656 157.953124 157.960937zm0 0" fill="#ffc14f"/><path d="m416.039062 249.140625c0 36.40625-12.3125 69.929687-33.007812 96.640625-21 10.328125-44.628906 16.132812-69.617188 16.132812-87.238281 0-157.953124-70.714843-157.953124-157.953124 0-36.40625 12.3125-69.929688 33.007812-96.640626 21-10.339843 44.628906-16.140624 69.617188-16.140624 87.230468 0 157.953124 70.722656 157.953124 157.960937zm0 0" fill="#ffd993"/><path d="m432.664062 279.652344c46.90625-17.320313 64.871094-53.988282 69.757813-66.484375 1.90625-4.839844.964844-10.363281-2.53125-14.316407-8.863281-10.074218-38.289063-38.378906-88.296875-38.621093 5.65625-9.925781 9.867188-20.273438 12.585938-30.972657 1.027343-4.050781-1.410157-8.164062-5.460938-9.191406-4.039062-1.027344-8.152344 1.410156-9.179688 5.460938-2.800781 11.015625-7.433593 21.644531-13.8125 31.789062-17.503906-26.167968-42.269531-47.085937-71.390624-59.851562 25.078124-22.664063 56.457031-31.3125 83.875-27.507813 1.652343 5.078125 4.210937 14.902344 4.503906 27.660157.089844 4.109374 3.457031 7.386718 7.546875 7.386718h.179687c4.171875-.089844 7.476563-3.558594 7.375-7.730468-.339844-15.34375-3.59375-27.144532-5.511718-32.808594-1.671876-4.976563-5.941407-8.5625-11.132813-9.347656-3.3125-.503907-8.664063-1.097657-15.394531-1.097657-17.605469 0-47.941406 4.199219-77.054688 28.300781-8.914062-49.21875-41.914062-73.292968-53.371094-80.273437-4.367187-2.65625-9.917968-2.796875-14.539062 0-11.457031 6.980469-44.4375 31.042969-53.363281 80.234375-38.460938-31.953125-79.1875-29.179688-92.449219-27.164062-5.199219.785156-9.472656 4.371093-11.144531 9.347656-4.292969 12.707031-14.085938 52.335937 10.691406 95.773437-49.996094.253907-79.410156 28.546875-88.277344 38.613281-3.476562 3.941407-4.441406 9.429688-2.527343 14.316407 4.886718 12.496093 22.851562 49.164062 69.753906 66.484375-38.148438 32.332031-42.488282 72.921875-42.8125 86.339844-.121094 5.25 2.660156 10.078124 7.277344 12.597656 27.144531 14.800781 62.4375 18.1875 96.183593 6.085937-2.007812 11.808594-2.285156 23.003907-1.226562 33.433594.410156 4.148437 4.121093 7.171875 8.269531 6.757813 4.152344-.410157 7.1875-4.121094 6.761719-8.269532-1.175781-11.582031-.335938-23.113281 2.035156-34.230468 24.777344 18.296874 54.804687 29.847656 87.382813 31.941406-21.59375 40.535156-56.691407 51.386718-69.164063 54.039062-3.296875-4.210937-9.058594-12.554687-13.683594-24.433594-1.519531-3.890624-5.894531-5.816406-9.785156-4.304687-3.886719 1.523437-5.8125 5.90625-4.300781 9.792969 5.570312 14.289062 12.664062 24.253906 16.394531 28.929687 3.269531 4.085938 8.484375 6.015625 13.660156 4.96875 13.160157-2.652343 52.386719-13.976562 77.597657-57.164062 25.199218 43.1875 64.425781 54.511719 77.585937 57.164062 4.984375 1.027344 10.304687-.773437 13.664063-4.96875 8.371093-10.480469 31.132812-44.375 22.699218-93.648437 33.898438 12.140625 69.160156 8.628906 96.167969-6.09375 4.613281-2.519532 7.394531-7.347656 7.273437-12.597656 0 0 0 0 0-.007813-.320312-13.410156-4.664062-54-42.8125-86.332031zm55.417969-71.339844c-4.765625 11.851562-21.601562 44.636719-65.464843 58.816406 3.394531-31.066406-1.980469-62.917968-16.351563-91.675781 46.179687-1.742187 73.273437 23.359375 81.816406 32.859375zm-229.996093-192.996094c10.851562 6.769532 40.324218 29.140625 46.59375 74.984375-29.632813-8.726562-62.351563-9.074219-93.183594-.050781 6.277344-45.816406 35.738281-68.164062 46.589844-74.933594zm-230.007813 192.996094c8.535156-9.5 35.621094-34.582031 81.757813-32.867188-14.621094 29.371094-19.601563 61.390626-16.292969 91.683594-43.851563-14.179687-60.699219-46.964844-65.464844-58.816406zm27.742187 157.339844c.429688-12.757813 5.035157-49.304688 41.359376-77.617188 7.558593 31.246094 24.003906 59.066406 46.503906 80.609375-42.671875 17.289063-76.601563 3.011719-87.863282-2.992187zm282.140626 102.695312c-12.464844-2.640625-47.570313-13.503906-69.152344-54.039062 32.574218-2.09375 62.613281-13.652344 87.378906-31.941406 9.582031 45-10.359375 75.933593-18.226562 85.980468zm-185.703126-112.441406c-58.351562-57.820312-58.992187-150.292969-4.425781-209.066406 2.84375-3.0625 2.660157-7.839844-.390625-10.679688-3.0625-2.84375-7.851562-2.660156-10.679687.390625-6.039063 6.507813-11.5 13.433594-16.355469 20.695313-24.59375-39.113282-16.414062-75.125-12.453125-87.289063 12.675781-1.78125 49.582031-3.597656 83.84375 27.457031-11.015625 4.816407-21.542969 10.875-31.429687 18.117188-3.363282 2.46875-4.101563 7.195312-1.632813 10.5625 2.46875 3.375 7.195313 4.097656 10.570313 1.628906 108.445312-79.398437 256.664062 13.121094 237.574218 143.40625-17.863281 121.277344-166.902344 171.601563-254.621094 84.777344zm220.222657 12.738281c22.5-21.542969 38.945312-49.363281 46.5-80.609375 36.324219 28.3125 40.929687 64.859375 41.363281 77.617188-11.265625 6.003906-45.191406 20.28125-87.863281 2.992187zm0 0"/><path d="m258.082031 467.097656c-4.175781 0-7.558593 3.382813-7.558593 7.558594v27.957031c0 4.171875 3.382812 7.558594 7.558593 7.558594 4.171875 0 7.554688-3.386719 7.554688-7.558594v-27.957031c0-4.175781-3.382813-7.558594-7.554688-7.558594zm0 0"/><path d="m504.441406 275.238281h-27.957031c-4.175781 0-7.558594 3.382813-7.558594 7.558594 0 4.171875 3.382813 7.554687 7.558594 7.554687h27.957031c4.175782 0 7.558594-3.382812 7.558594-7.554687 0-4.175781-3.382812-7.558594-7.558594-7.558594zm0 0"/><path d="m43.074219 282.796875c0-4.175781-3.382813-7.558594-7.558594-7.558594h-27.957031c-4.175782 0-7.558594 3.382813-7.558594 7.558594 0 4.171875 3.382812 7.554687 7.558594 7.554687h27.957031c4.175781 0 7.558594-3.382812 7.558594-7.554687zm0 0"/><path d="m408.113281 416.289062c-2.683593-3.195312-7.453125-3.613281-10.648437-.929687-3.195313 2.683594-3.613282 7.449219-.929688 10.644531l17.96875 21.417969c1.496094 1.78125 3.636719 2.699219 5.792969 2.699219 6.335937 0 9.941406-7.464844 5.785156-12.414063zm0 0"/><path d="m123.832031 415.359375c-3.199219-2.683594-7.964843-2.265625-10.644531.929687l-17.972656 21.417969c-2.683594 3.199219-2.265625 7.964844.929687 10.648438 3.21875 2.699219 7.984375 2.242187 10.648438-.933594l17.96875-21.414063c2.683593-3.199218 2.269531-7.964843-.929688-10.648437zm0 0"/><path d="m32.347656 124.636719 24.480469 13.511719c1.15625.636718 2.410156.941406 3.644531.941406 2.664063 0 5.246094-1.410156 6.621094-3.90625 2.019531-3.652344.691406-8.25-2.960938-10.265625l-24.476562-13.511719c-3.65625-2.015625-8.253906-.691406-10.269531 2.960938-2.019531 3.65625-.691407 8.253906 2.960937 10.269531zm0 0"/><path d="m455.660156 138.148438 24.476563-13.511719c3.652343-2.015625 4.980469-6.613281 2.964843-10.269531-2.019531-3.652344-6.617187-4.980469-10.269531-2.960938l-24.476562 13.507812c-3.652344 2.015626-4.980469 6.613282-2.964844 10.269532 2.023437 3.664062 6.625 4.976562 10.269531 2.964844zm0 0"/><path d="m333.246094 50.316406c2.589844 0 5.117187-1.332031 6.523437-3.730468l14.152344-24.113282c2.109375-3.601562.90625-8.230468-2.695313-10.34375-3.597656-2.113281-8.230468-.90625-10.34375 2.691406l-14.148437 24.113282c-2.984375 5.085937.761719 11.382812 6.511719 11.382812zm0 0"/><path d="m175.019531 46.585938c1.40625 2.398437 3.929688 3.734374 6.523438 3.734374 5.742187 0 9.496093-6.296874 6.507812-11.382812l-14.148437-24.113281c-2.113282-3.601563-6.742188-4.808594-10.34375-2.695313-3.597656 2.113282-4.804688 6.746094-2.691406 10.34375zm0 0"/></svg>