<svg height="511pt" viewBox="0 -26 511.99956 511" width="511pt" xmlns="http://www.w3.org/2000/svg"><path d="m477.054688 284.453125c-18.472657 20.097656-45.007813 33.242187-76.28125 33.242187-81.484376 0-130.527344-89.085937-89.488282-157.613281l72.523438-141.683593c7.101562-13.878907 26.917968-13.777344 33.929687 0l9.53125 18.632812 62.980469 123.050781c25.320312 42.273438 16.390625 92.210938-13.195312 124.371094zm0 0" fill="#2476ed"/><path d="m188.089844 284.453125c-18.457032 20.085937-44.984375 33.242187-76.289063 33.242187-81.332031 0-130.617187-88.925781-89.480469-157.613281l72.515626-141.683593c7.011718-13.777344 26.828124-13.878907 33.929687 0l9.539063 18.632812 62.984374 123.050781c25.269532 42.195313 16.378907 92.179688-13.199218 124.371094zm0 0" fill="#2476ed"/><path d="m188.089844 284.453125c-2.097656.128906-4.21875.191406-6.367188.191406-81.332031 0-130.617187-88.925781-89.488281-157.613281l46.070313-90 62.984374 123.050781c25.269532 42.195313 16.378907 92.179688-13.199218 124.371094zm0 0" fill="#5596fb"/><path d="m477.054688 284.453125c-2.101563.128906-4.21875.191406-6.367188.191406-81.472656 0-130.515625-89.085937-89.480469-157.613281l46.0625-90 62.980469 123.050781c25.320312 42.273438 16.390625 92.210938-13.195312 124.371094zm0 0" fill="#5596fb"/><path d="m332.839844 419.609375c-18.472656 20.246094-45.085938 33.523437-76.542969 33.523437-81.332031 0-130.617187-88.933593-89.488281-157.613281l72.523437-141.683593c7.011719-13.78125 26.816407-13.890626 33.929688 0l9.46875 18.5 63.054687 123.183593c25.199219 42.0625 16.429688 91.890625-12.945312 124.089844zm0 0" fill="#97bffd"/><path d="m332.839844 419.609375c-2.179688.140625-4.390625.210937-6.621094.210937-81.332031 0-130.625-88.925781-89.488281-157.613281l46-89.871093 63.054687 123.183593c25.199219 42.0625 16.429688 91.890625-12.945312 124.089844zm0 0" fill="#b9d3fd"/><path d="m505.273438 216.679688c-4.136719-.453126-7.851563 2.539062-8.292969 6.679687-7.53125 69.488281-82 106.492187-140.351563 76.328125-1.3125-2.652344-2.730468-5.261719-4.257812-7.824219l-47.335938-92.488281c3.296875-22.335938 4.878906-18.414062 85.472656-177.542969 4.332032-8.425781 16.285157-8.339843 20.519532 0 84.109375 164.289063 81.683594 156.882813 84.867187 173.746094.773438 4.085937 4.71875 6.769531 8.796875 5.996094 4.089844-.765625 6.78125-4.710938 6.007813-8.800781-4.195313-22.160157-2.65625-13.21875-86.253907-177.789063-9.785156-19.265625-37.453124-19.347656-47.347656-.019531-85.898437 167.46875-79.914062 155.652344-82.605468 163.820312l-14.523438-28.382812c-9.902344-19.34375-37.5625-19.222656-47.34375 0l-14.546875 28.402344c-2.671875-8.113282 3.003906 3.085937-82.605469-163.839844-9.882812-19.308594-37.550781-19.265625-47.335937 0l-72.414063 141.472656c-35.371094 59.363281-8.023437 134 51.664063 159.761719 3.828125 1.648437 8.253906-.109375 9.902343-3.9375 1.648438-3.816407-.109374-8.246094-3.9375-9.902344-34.878906-15.054687-58.3125-50.929687-58.3125-89.277344 0-28.023437 12.546876-46.265625 13.871094-49.34375l72.644532-141.925781c4.214843-8.304688 16.171874-8.414062 20.507812.019531 80.660156 159.257813 82.199219 155.296875 85.480469 177.570313l-47.324219 92.460937c-1.515625 2.550781-2.933594 5.152344-4.238281 7.804688-17.554688 9.082031-37.09375 11.964843-55.75 9.84375-4.121094-.484375-7.867188 2.480469-8.335938 6.617187-.484375 4.140625 2.480469 7.875 6.617188 8.347656 16.226562 1.867188 33.519531.355469 49.996093-5.3125-9.832031 35.191407-1.203124 72.398438 20.992188 100.0625 2.609375 3.246094 7.351562 3.757813 10.59375 1.15625 3.246094-2.601562 3.757812-7.34375 1.15625-10.585937-21.734375-27.097656-28.726562-64.914063-13.6875-99.3125.253906-.582031-3.949219 7.828125 78.488281-153.242187 4.238281-8.332032 16.210938-8.367188 20.5.019531 21.492188 41.996093 51.328125 100.296875 72.765625 142.125 37.949219 63.367187-7.570312 146.214843-83.019531 146.214843-19.878906 0-38.78125-5.816406-54.679687-16.8125-3.421876-2.359374-8.113282-1.507812-10.484376 1.90625-2.359374 3.425782-1.507812 8.117188 1.917969 10.488282 42.734375 29.566406 104.804688 26.25 143.84375-14.875 19.835938-20.890625 31.207031-49.265625 31.207031-77.828125 0-9.914063-1.367187-19.777344-4.027343-29.316407 11.589843 3.996094 23.941406 6.066407 36.699219 6.066407 28.722656 0 55.851562-10.707031 76.390624-30.152344 19.542969-18.5 31.898438-43.398437 34.789063-70.09375.453125-4.136719-2.539063-7.855469-6.679687-8.304687zm0 0"/></svg>